<?xml version="1.0" encoding="utf-8"?>
<!-- Generator: Adobe Illustrator 25.0.0, SVG Export Plug-In . SVG Version: 6.00 Build 0)  -->
<svg version="1.1" id="Layer_1" xmlns="http://www.w3.org/2000/svg" xmlns:xlink="http://www.w3.org/1999/xlink" x="0px" y="0px"
	 viewBox="0 0 169.5 60" style="enable-background:new 0 0 169.5 60;" xml:space="preserve">
<style type="text/css">
	.st0{fill-rule:evenodd;clip-rule:evenodd;fill:#FDEB04;}
	.st1{fill-rule:evenodd;clip-rule:evenodd;fill:#171717;}
	.st2{fill:#6B6B6B;}
</style>
<path class="st0" d="M8.5,1h39.1C52.2,1,56,4.9,56,9.8v40.4c0,4.8-3.8,8.8-8.5,8.8H8.5C3.8,59,0,55,0,50.2V9.8C0,4.9,3.8,1,8.5,1z"
	/>
<path class="st1" d="M25.9,46.1h-6.4v-2.7c-0.7,1-1.4,1.7-2.3,2.2c-1.1,0.6-2.3,0.9-3.8,0.9c-1,0-2-0.2-2.8-0.5
	c-0.8-0.3-1.6-0.8-2.2-1.4c-0.6-0.6-1.1-1.4-1.4-2.2c-0.3-0.8-0.5-1.8-0.5-2.8c0-2.2,0.6-3.9,1.9-5.2c1.2-1.3,3.1-2.1,5.6-2.4
	l4.2-0.6l0.2,2.6l3.4-4.7l-3.9-3.6l0.1,2.3c-2.3,0.1-6,0.6-9,2.5l-0.4,0.2v-5.7l0.1-0.1c0.5-0.2,1-0.5,1.6-0.7
	c0.6-0.2,1.3-0.4,2.1-0.6c0.8-0.2,1.5-0.3,2.3-0.4c0.7-0.1,1.4-0.1,2.1-0.1c3.1,0,5.4,0.8,6.9,2.4c1.5,1.6,2.3,4,2.3,7.1v13.3H25.9z
	 M19.5,37v-1.2L16,36.3c-1,0.1-1.8,0.4-2.2,0.9C13.3,37.6,13,38.2,13,39c0,0.4,0.1,0.7,0.2,0.9c0.1,0.3,0.3,0.5,0.5,0.7
	c0.2,0.2,0.5,0.4,0.8,0.5c0.3,0.1,0.7,0.2,1.1,0.2c0.6,0,1.1-0.1,1.6-0.3c0.5-0.2,0.9-0.5,1.2-0.9c0.4-0.4,0.6-0.9,0.8-1.4
	C19.4,38.2,19.5,37.6,19.5,37z"/>
<path class="st1" d="M49.5,46H43v-3h-0.1c-1.5,2.3-3.7,3.5-6.5,3.5c-2.6,0-4.7-1-6.3-2.9c-1.6-1.9-2.4-4.6-2.4-8
	c0-3.6,0.9-6.5,2.7-8.6c1.8-2.2,4.1-3.2,6.9-3.2c2.7,0,4.6,1,5.7,3H43V13.8h6.5V46z M43.1,35.4v-1.6c0-1.4-0.4-2.6-1.2-3.5
	c-0.8-0.9-1.8-1.4-3.1-1.4c-1.4,0-2.6,0.6-3.4,1.7c-0.8,1.2-1.2,2.8-1.2,4.8c0,1.9,0.4,3.4,1.2,4.4c0.8,1,1.9,1.6,3.2,1.6
	c1.3,0,2.4-0.5,3.2-1.6C42.7,38.6,43.1,37.2,43.1,35.4z"/>
<path class="st1" d="M68.1,43.3L68.1,43.3L68,45.8h-6.5V13.6H68v13.7h0.1c1.6-2.5,3.9-3.8,6.8-3.8c2.7,0,4.8,1,6.3,2.9
	c1.5,1.9,2.2,4.6,2.2,7.9c0,3.6-0.9,6.5-2.6,8.7c-1.7,2.2-4,3.3-6.9,3.3C71.4,46.3,69.4,45.3,68.1,43.3z M67.9,34.1v2.2
	c0,1.4,0.4,2.6,1.2,3.5c0.8,0.9,1.8,1.4,3,1.4c1.5,0,2.6-0.6,3.4-1.8c0.8-1.2,1.2-2.9,1.2-5c0-1.8-0.4-3.2-1.1-4.2
	c-0.8-1-1.8-1.5-3.2-1.5c-1.3,0-2.4,0.5-3.2,1.5C68.3,31.2,67.9,32.5,67.9,34.1z M102.8,45.8h-6.1v-3.1h-0.1
	c-1.4,2.4-3.5,3.7-6.3,3.7c-2,0-3.6-0.6-4.8-1.8c-1.2-1.2-1.8-2.8-1.8-4.8c0-4.2,2.4-6.7,7.2-7.3l5.7-0.8c0-2.4-1.2-3.6-3.7-3.6
	c-2.5,0-4.9,0.8-7.1,2.3v-5.1c0.9-0.5,2.1-0.9,3.7-1.3c1.6-0.4,3-0.6,4.3-0.6c6,0,9,3.1,9,9.3V45.8z M96.7,37v-1.5L92.8,36
	c-2.1,0.3-3.2,1.3-3.2,3c0,0.8,0.3,1.4,0.8,1.9c0.5,0.5,1.2,0.7,2.1,0.7c1.2,0,2.2-0.4,3-1.3C96.3,39.4,96.7,38.3,96.7,37z
	 M157.3,46.3c-3.5,0-6.3-1-8.3-3c-2-2-3-4.8-3-8.3c0-3.6,1-6.4,3.1-8.4s4.9-3,8.4-3c3.5,0,6.2,1,8.2,3c2,2,3,4.7,3,8.1
	c0,3.6-1,6.5-3.1,8.6C163.6,45.3,160.8,46.3,157.3,46.3z M157.5,28.7c-1.5,0-2.7,0.5-3.6,1.6c-0.8,1.1-1.3,2.6-1.3,4.6
	c0,4.2,1.6,6.3,4.9,6.3c3.1,0,4.7-2.1,4.7-6.4C162.2,30.7,160.6,28.7,157.5,28.7z M124.6,45.8h-6.5V33.7c0-3.4-1.2-5.1-3.5-5.1
	c-1.1,0-2,0.4-2.8,1.3c-0.7,0.9-1.1,2-1.1,3.4v12.4h-6.5V24.1h6.5v3.4h0.1c1.5-2.7,3.8-4,6.8-4c4.7,0,7,3,7,9V45.8z M144.9,45.8
	h-6.1v-3.1h-0.1c-1.4,2.4-3.5,3.7-6.3,3.7c-2,0-3.6-0.6-4.8-1.8c-1.2-1.2-1.8-2.8-1.8-4.8c0-4.2,2.4-6.7,7.2-7.3l5.7-0.8
	c0-2.4-1.2-3.6-3.7-3.6c-2.5,0-4.9,0.8-7.1,2.3v-5.1c0.9-0.5,2.1-0.9,3.7-1.3c1.6-0.4,3-0.6,4.3-0.6c6,0,9,3.1,9,9.3V45.8z
	 M138.8,37v-1.5L135,36c-2.1,0.3-3.2,1.3-3.2,3c0,0.8,0.3,1.4,0.8,1.9c0.5,0.5,1.2,0.7,2.1,0.7c1.2,0,2.2-0.4,3-1.3
	C138.4,39.4,138.8,38.3,138.8,37z"/>
<path class="st2" d="M94.9,57v-7.9h2.6c0.9,0,1.5,0.2,1.9,0.5c0.4,0.4,0.6,0.9,0.6,1.6c0,0.4-0.1,0.7-0.3,1
	c-0.2,0.3-0.5,0.5-0.9,0.7c0.4,0.1,0.8,0.3,1,0.7c0.2,0.3,0.4,0.7,0.4,1.2c0,0.7-0.2,1.3-0.7,1.7c-0.5,0.4-1.1,0.6-1.9,0.6H94.9z
	 M95.9,53.3v2.8h1.7c0.5,0,0.9-0.1,1.1-0.4c0.3-0.3,0.4-0.6,0.4-1c0-0.9-0.5-1.4-1.5-1.4H95.9z M95.9,52.5h1.6
	c0.5,0,0.8-0.1,1.1-0.3c0.3-0.2,0.4-0.5,0.4-0.9c0-0.4-0.1-0.7-0.4-0.9C98.4,50.1,98,50,97.5,50h-1.5V52.5z M104.5,52.1
	c-0.2,0-0.3,0-0.5,0c-0.7,0-1.1,0.3-1.3,0.8V57h-1v-5.8h1l0,0.7c0.3-0.5,0.8-0.8,1.4-0.8c0.2,0,0.3,0,0.4,0.1V52.1z M108.8,57
	c-0.1-0.1-0.1-0.3-0.1-0.6c-0.5,0.5-1,0.7-1.7,0.7c-0.6,0-1-0.2-1.4-0.5c-0.4-0.3-0.5-0.7-0.5-1.2c0-0.6,0.2-1.1,0.7-1.4
	c0.5-0.3,1.1-0.5,2-0.5h1V53c0-0.3-0.1-0.6-0.3-0.8c-0.2-0.2-0.5-0.3-0.9-0.3c-0.4,0-0.7,0.1-0.9,0.3c-0.2,0.2-0.4,0.4-0.4,0.7h-1
	c0-0.3,0.1-0.6,0.3-0.8c0.2-0.3,0.5-0.5,0.8-0.6c0.4-0.2,0.7-0.2,1.2-0.2c0.7,0,1.2,0.2,1.6,0.5c0.4,0.3,0.6,0.8,0.6,1.4v2.7
	c0,0.5,0.1,1,0.2,1.3V57H108.8z M107.1,56.2c0.3,0,0.6-0.1,0.9-0.2c0.3-0.2,0.5-0.4,0.6-0.6v-1.2h-0.8c-1.2,0-1.8,0.4-1.8,1.1
	c0,0.3,0.1,0.6,0.3,0.7C106.5,56.2,106.8,56.2,107.1,56.2z M112.1,51.2l0,0.7c0.4-0.6,1-0.8,1.7-0.8c1.2,0,1.9,0.7,1.9,2.1V57h-1
	v-3.9c0-0.4-0.1-0.7-0.3-0.9c-0.2-0.2-0.5-0.3-0.9-0.3c-0.3,0-0.6,0.1-0.9,0.3c-0.2,0.2-0.4,0.4-0.6,0.7V57h-1v-5.8H112.1z M117,54
	c0-0.9,0.2-1.6,0.6-2.2c0.4-0.5,1-0.8,1.7-0.8c0.7,0,1.2,0.2,1.6,0.7v-3h1V57H121l0-0.6c-0.4,0.5-1,0.7-1.7,0.7
	c-0.7,0-1.2-0.3-1.7-0.8C117.2,55.7,117,55,117,54L117,54z M118,54.1c0,0.7,0.1,1.2,0.4,1.6c0.3,0.4,0.7,0.6,1.1,0.6
	c0.6,0,1.1-0.3,1.4-0.9v-2.7c-0.3-0.6-0.8-0.8-1.4-0.8c-0.5,0-0.9,0.2-1.1,0.6C118.2,52.8,118,53.4,118,54.1z M126.4,57v-7.9h2.6
	c0.9,0,1.5,0.2,1.9,0.5c0.4,0.4,0.6,0.9,0.6,1.6c0,0.4-0.1,0.7-0.3,1c-0.2,0.3-0.5,0.5-0.9,0.7c0.4,0.1,0.8,0.3,1,0.7
	c0.2,0.3,0.4,0.7,0.4,1.2c0,0.7-0.2,1.3-0.7,1.7c-0.5,0.4-1.1,0.6-1.9,0.6H126.4z M127.4,53.3v2.8h1.7c0.5,0,0.9-0.1,1.1-0.4
	c0.3-0.3,0.4-0.6,0.4-1c0-0.9-0.5-1.4-1.5-1.4H127.4z M127.4,52.5h1.6c0.5,0,0.8-0.1,1.1-0.3c0.3-0.2,0.4-0.5,0.4-0.9
	c0-0.4-0.1-0.7-0.4-0.9c-0.3-0.2-0.6-0.3-1.1-0.3h-1.5V52.5z M136.7,57c-0.1-0.1-0.1-0.3-0.1-0.6c-0.5,0.5-1,0.7-1.7,0.7
	c-0.6,0-1-0.2-1.4-0.5c-0.4-0.3-0.6-0.7-0.6-1.2c0-0.6,0.2-1.1,0.7-1.4c0.5-0.3,1.1-0.5,2-0.5h1V53c0-0.3-0.1-0.6-0.3-0.8
	c-0.2-0.2-0.5-0.3-0.9-0.3c-0.4,0-0.7,0.1-0.9,0.3c-0.2,0.2-0.4,0.4-0.4,0.7h-1c0-0.3,0.1-0.6,0.3-0.8c0.2-0.3,0.5-0.5,0.8-0.6
	c0.4-0.2,0.7-0.2,1.2-0.2c0.7,0,1.2,0.2,1.6,0.5c0.4,0.3,0.6,0.8,0.6,1.4v2.7c0,0.5,0.1,1,0.2,1.3V57H136.7z M135.1,56.2
	c0.3,0,0.6-0.1,0.9-0.2c0.3-0.2,0.5-0.4,0.6-0.6v-1.2h-0.8c-1.2,0-1.8,0.4-1.8,1.1c0,0.3,0.1,0.6,0.3,0.7
	C134.5,56.2,134.8,56.2,135.1,56.2z M138.9,54c0-0.9,0.2-1.6,0.6-2.2c0.4-0.5,1-0.8,1.7-0.8c0.7,0,1.2,0.2,1.6,0.7v-3h1V57h-0.9
	l0-0.6c-0.4,0.5-1,0.7-1.7,0.7c-0.7,0-1.2-0.3-1.7-0.8C139.1,55.7,138.9,55,138.9,54L138.9,54z M139.9,54.1c0,0.7,0.1,1.2,0.4,1.6
	c0.3,0.4,0.7,0.6,1.1,0.6c0.6,0,1.1-0.3,1.4-0.9v-2.7c-0.3-0.6-0.8-0.8-1.4-0.8c-0.5,0-0.9,0.2-1.1,0.6
	C140,52.8,139.9,53.4,139.9,54.1z M146.4,51.9c0.4-0.5,1-0.8,1.7-0.8c1.2,0,1.9,0.7,1.9,2.1V57h-1v-3.9c0-0.4-0.1-0.7-0.3-0.9
	c-0.2-0.2-0.5-0.3-0.9-0.3c-0.3,0-0.6,0.1-0.9,0.3c-0.2,0.2-0.4,0.4-0.6,0.7V57h-1v-8.3h1V51.9z M155.1,57c-0.1-0.1-0.1-0.3-0.1-0.6
	c-0.5,0.5-1,0.7-1.7,0.7c-0.6,0-1-0.2-1.4-0.5c-0.4-0.3-0.6-0.7-0.6-1.2c0-0.6,0.2-1.1,0.7-1.4c0.5-0.3,1.1-0.5,2-0.5h1V53
	c0-0.3-0.1-0.6-0.3-0.8c-0.2-0.2-0.5-0.3-0.9-0.3c-0.4,0-0.7,0.1-0.9,0.3c-0.2,0.2-0.4,0.4-0.4,0.7h-1c0-0.3,0.1-0.6,0.3-0.8
	c0.2-0.3,0.5-0.5,0.8-0.6c0.4-0.2,0.7-0.2,1.2-0.2c0.7,0,1.2,0.2,1.6,0.5c0.4,0.3,0.6,0.8,0.6,1.4v2.7c0,0.5,0.1,1,0.2,1.3V57H155.1
	z M153.4,56.2c0.3,0,0.6-0.1,0.9-0.2c0.3-0.2,0.5-0.4,0.6-0.6v-1.2h-0.8c-1.2,0-1.8,0.4-1.8,1.1c0,0.3,0.1,0.6,0.3,0.7
	C152.8,56.2,153.1,56.2,153.4,56.2z M157.2,54c0-0.6,0.1-1.1,0.3-1.5c0.2-0.5,0.5-0.8,0.9-1.1c0.4-0.2,0.9-0.4,1.4-0.4
	c0.8,0,1.4,0.3,1.9,0.8c0.5,0.6,0.7,1.3,0.7,2.2v0.1c0,0.6-0.1,1.1-0.3,1.5c-0.2,0.4-0.5,0.8-0.9,1.1c-0.4,0.3-0.9,0.4-1.4,0.4
	c-0.8,0-1.4-0.3-1.9-0.8C157.5,55.7,157.2,55,157.2,54L157.2,54z M158.2,54.1c0,0.6,0.1,1.2,0.4,1.6c0.3,0.4,0.7,0.6,1.2,0.6
	c0.5,0,0.9-0.2,1.2-0.6c0.3-0.4,0.4-1,0.4-1.7c0-0.6-0.2-1.2-0.5-1.6c-0.3-0.4-0.7-0.6-1.2-0.6c-0.5,0-0.9,0.2-1.2,0.6
	C158.4,52.9,158.2,53.4,158.2,54.1z M163.8,56.5c0-0.2,0.1-0.3,0.2-0.4c0.1-0.1,0.3-0.2,0.5-0.2s0.4,0.1,0.5,0.2
	c0.1,0.1,0.2,0.3,0.2,0.4c0,0.2-0.1,0.3-0.2,0.4c-0.1,0.1-0.3,0.2-0.5,0.2s-0.4-0.1-0.5-0.2C163.9,56.8,163.8,56.6,163.8,56.5z
	 M166.7,56.5c0-0.2,0.1-0.3,0.2-0.4c0.1-0.1,0.3-0.2,0.5-0.2s0.4,0.1,0.5,0.2c0.1,0.1,0.2,0.3,0.2,0.4c0,0.2-0.1,0.3-0.2,0.4
	c-0.1,0.1-0.3,0.2-0.5,0.2s-0.4-0.1-0.5-0.2C166.8,56.8,166.7,56.6,166.7,56.5z"/>
</svg>
